<?xml version="1.0" encoding="utf-8"?>
<!-- Generator: Adobe Illustrator 26.3.0, SVG Export Plug-In . SVG Version: 6.00 Build 0)  -->
<svg version="1.1" id="Layer_2_00000129181774086450732010000015437684481050652323_"
	 xmlns="http://www.w3.org/2000/svg" xmlns:xlink="http://www.w3.org/1999/xlink" x="0px" y="0px" viewBox="0 0 101 94.9"
	 style="enable-background:new 0 0 101 94.9;" xml:space="preserve">
<style type="text/css">
	.st0{fill-rule:evenodd;clip-rule:evenodd;fill:#D7C396;}
</style>
<g id="Layer_1-2">
	<path class="st0" d="M0.1,84.7V0h6.5c0,0,0.5,12.1,7.3,19.8c5.9,8.1,13.3,6.5,19.3,12s8.5,12.6,3.1,19.6s-13.9,7.7-16.5,3.2
		c-3.3-4.4-1.4-10.3-1.4-10.3c0.3,5.8,6.8,10,12.2,4.8c5.4-5.6-2.1-18.3-14.7-13.8c-12.5,4.5-9.9,17.2-4.8,25C16.3,69.2,13,82,13,82
		s14.5-2.3,23.4,2.5s22.4,7.2,27.2-4.5c4.8-11.8-9.2-18.9-14.7-13.8s-1,11.2,4.5,11.5c0,0-5.7,1.8-11.2-1.3
		c-3.8-3.1-4-10.5,4.3-15.5c7.4-5.5,15-2.7,20.9,2.2c5.9,6.4,4.2,13.4,12.5,18.9s21.1,7,21.1,7v5.8l-90.2-0.3
		C4.9,94.8-0.8,90.5,0.1,84.7z"/>
</g>
</svg>
